# xmcd
#
# Track frame offsets: 
#        300
#        21427
#        50857
#        65894
#        91874
#        116784
#        142566
#        164391
#        183046
#        209299
#        224950
#        245625
#        268941
#
# Disc length: 3876 seconds
#
# Revision: 3
# Processed by: cddbd v1.5.2PL0 Copyright (c) Steve Scherf et al.
# Submitted via: ExactAudioCopy v1.0b1
#
DISCID=d00f200d
DTITLE=Byther Smith - Mississippi Kid
DYEAR=1996
DGENRE=General Blues
TTITLE0=Judge Of Honor
TTITLE1=Don't Hurt Me No More
TTITLE2=President's Daughter
TTITLE3=Living In Pain
TTITLE4=Ashamed Of Myself
TTITLE5=I Don't Know Where You Go
TTITLE6=Blues On The Moon
TTITLE7=Your Daughter Don't Want Me No More
TTITLE8=Give Me My White Robe
TTITLE9=Runnin' To New Orleans
TTITLE10=Cora, You Made A Man Out Of Me
TTITLE11=Monticello Lonely
TTITLE12=Mississippi Kid
EXTD=Delmark DE-691\n\nSubmitted 6/20/97\n[Jmccoy@efn.org]
EXTT0=
EXTT1=
EXTT2=
EXTT3=
EXTT4=
EXTT5=
EXTT6=
EXTT7=
EXTT8=
EXTT9=
EXTT10=
EXTT11=
EXTT12=
PLAYORDER=
